<?xml version="1.0" standalone="no"?>
<!DOCTYPE svg PUBLIC "-//W3C//DTD SVG 20010904//EN"
 "http://www.w3.org/TR/2001/REC-SVG-20010904/DTD/svg10.dtd">
<svg version="1.0" xmlns="http://www.w3.org/2000/svg"
 width="893.000000pt" height="893.000000pt" viewBox="0 0 893.000000 893.000000"
 preserveAspectRatio="xMidYMid meet">
<metadata>
Created by potrace 1.11, written by Peter Selinger 2001-2013
</metadata>
<g transform="translate(0.000000,893.000000) scale(0.100000,-0.100000)"
fill="#000000" stroke="none">
<path d="M6199 8809 c-7 -4 -16 -6 -20 -4 -5 4 -54 -3 -194 -29 -16 -3 -68
-17 -115 -31 -47 -15 -92 -28 -100 -30 -30 -7 -197 -80 -270 -118 -76 -40
-235 -145 -293 -195 -104 -88 -245 -242 -299 -325 -3 -5 -20 7 -39 29 -190
227 -459 390 -759 460 -67 15 -81 18 -190 33 -66 9 -362 7 -435 -4 -472 -67
-859 -251 -1140 -540 -170 -174 -246 -303 -419 -709 l-93 -219 -111 -2 c-61
-2 -128 -6 -149 -9 -21 -4 -54 -9 -73 -11 -66 -9 -243 -57 -333 -91 -578 -221
-1021 -713 -1123 -1249 -24 -130 -24 -357 1 -490 29 -153 99 -319 197 -469 55
-83 147 -183 233 -254 122 -100 119 -79 29 -169 -249 -249 -408 -529 -476
-840 -29 -133 -31 -407 -5 -533 38 -177 102 -330 205 -485 65 -98 230 -258
339 -329 l91 -60 -3 -40 c-3 -23 -7 -72 -10 -111 -3 -38 -7 -92 -10 -120 -29
-303 -26 -530 10 -680 14 -61 46 -171 55 -190 84 -183 111 -232 186 -330 124
-163 296 -306 479 -398 57 -28 229 -94 266 -101 13 -2 44 -9 69 -15 114 -26
203 -35 350 -35 98 -1 228 8 276 18 12 2 38 7 59 10 53 9 206 45 230 56 11 4
56 20 100 36 384 133 734 416 925 748 46 80 115 231 126 275 2 9 13 49 24 90
11 41 20 83 20 93 0 35 16 17 18 -21 3 -46 4 -52 30 -161 112 -467 445 -838
902 -1003 97 -36 239 -70 345 -84 78 -10 329 -10 424 0 638 68 1191 477 1414
1047 32 81 63 184 72 236 4 21 8 46 10 54 9 42 18 132 19 190 2 64 2 65 32 67
155 13 461 107 607 187 23 13 69 38 102 56 291 159 553 426 709 722 40 77 132
318 121 318 -3 0 0 11 5 24 5 13 12 50 16 83 3 32 8 67 10 78 6 25 5 243 0
270 -2 11 -7 43 -10 70 -15 108 -80 307 -133 404 -125 228 -327 431 -548 550
-33 18 -61 34 -63 36 -2 1 25 17 60 35 71 37 231 135 250 153 7 7 40 32 73 56
77 57 266 246 331 331 218 284 322 569 323 888 0 216 -42 392 -137 576 -168
326 -469 560 -845 656 -65 16 -72 20 -70 41 4 41 2 233 -2 264 -2 17 -7 54
-10 84 -3 30 -8 57 -10 61 -2 4 -6 19 -9 34 -38 212 -181 469 -358 647 -118
118 -214 187 -366 264 -78 38 -292 120 -292 111 0 -2 -21 2 -47 10 -27 8 -66
17 -88 19 -22 3 -51 8 -65 11 -38 10 -416 13 -431 3z"/>
</g>
</svg>
