<?xml version="1.0" encoding="utf-8"?>
<!-- Generator: Adobe Illustrator 19.0.0, SVG Export Plug-In . SVG Version: 6.00 Build 0)  -->
<svg version="1.1" id="Camada_1" xmlns="http://www.w3.org/2000/svg" xmlns:xlink="http://www.w3.org/1999/xlink" x="0px" y="0px"
	 viewBox="0 0 317.8 194.5" style="enable-background:new 0 0 317.8 194.5;" xml:space="preserve">
<style type="text/css">
	.st0{fill-rule:evenodd;clip-rule:evenodd;fill:none;stroke:#E5402A;stroke-width:10;stroke-miterlimit:10;}
	.st1{fill-rule:evenodd;clip-rule:evenodd;fill:#E5402A;}
</style>
<g id="XMLID_1666_">
	<path id="XMLID_1667_" class="st0" d="M23.3,125.1c-7.2-18.6-7.5-40.2,0.4-58.6c16-37.2,53.1-48.5,93.5-45.7
		c40.8,2.8,81.8-3.5,122.7,5c32.6,6.8,50.8,24.6,58,56.9c6.7,29.9-3.4,54.4-24.6,72.2c-25,20.9-56.7,24.7-85.1,8.6
		c-20.7-11.7-35-11.7-55.8,0C92.3,185.9,42,173.1,23.3,125.1z"/>
	<rect id="XMLID_1668_" x="76.1" y="64.3" class="st1" width="24.5" height="58"/>
	<rect id="XMLID_1669_" x="56.5" y="81.1" class="st1" width="63.6" height="20.4"/>
	<path id="XMLID_1670_" class="st1" d="M263.2,80.9c0.1,7.5-5.7,13.4-13.2,13.5c-7.3,0.1-13.1-5.5-13.3-12.8
		c-0.2-7.6,5.4-13.5,12.9-13.6C257.2,67.8,263.1,73.4,263.2,80.9z"/>
	<path id="XMLID_1671_" class="st1" d="M239.7,119c0.1,7.5-5.7,13.4-13.2,13.5c-7.3,0.1-13.1-5.5-13.3-12.8
		c-0.2-7.6,5.4-13.5,12.9-13.6C233.7,105.9,239.6,111.5,239.7,119z"/>
</g>
</svg>
