<?xml version="1.0" encoding="utf-8"?>
<!-- Generator: Adobe Illustrator 19.0.0, SVG Export Plug-In . SVG Version: 6.00 Build 0)  -->
<svg version="1.1" id="Camada_1" xmlns="http://www.w3.org/2000/svg" xmlns:xlink="http://www.w3.org/1999/xlink" x="0px" y="0px"
	 viewBox="-143.6 363.4 86.6 82.1" style="enable-background:new -143.6 363.4 86.6 82.1;" xml:space="preserve">
<g id="XMLID_2928_">
	<path id="XMLID_2947_" fill="#FFF" d="M-68.4,392.1c4.7-0.3,11.1-7.9,3.5-7.4c-4.6,0.3-9.2,0.6-13.8,0.8c1.2-5,2.7-9.9,4.4-14.7
		c2.2-6.2-9.2-5.3-10.9-0.4c-1.8,5.1-3.3,10.3-4.6,15.6c-7.6,0.3-15.2,0.4-22.8,0.6c1.6-4.7,3.4-9.4,5.5-13.9
		c2.5-5.5-8.8-4.3-10.8,0c-2.1,4.6-3.9,9.3-5.6,14.1c-3.5,0-7.1,0.1-10.6,0.1c-4.8,0.1-11.1,7.5-3.5,7.4c3.9,0,7.8-0.1,11.7-0.1
		c-1.8,6.2-3.4,12.5-4.6,18.8c-1.4,0.1-2.7,0.2-4.1,0.4c-5.2,0.5-10.8,8.9-3.2,8.2c1.9-0.2,3.9-0.3,5.9-0.5
		c-1,6.6-1.8,13.2-2.2,19.7c-0.4,5.4,10.9,2.8,11.2-2.1c0.4-6.1,1.1-12.2,2-18.4c8.6-0.4,17.2-0.5,25.8,0.2
		c-0.4,6.5-0.6,12.9-0.4,19.2c0.1,6,11.4,3.5,11.3-1.9c-0.1-5.3,0-10.7,0.2-16.1c3.6,0.5,7.1,1.2,10.6,2.1c4.7,1.2,12.7-6.2,5.8-7.9
		c-5.2-1.3-10.5-2.2-15.8-2.9c0.6-6.8,1.6-13.5,3-20.2C-76.4,392.6-72.4,392.4-68.4,392.1z M-94.4,412.1c-8.4-0.4-16.8-0.3-25.1,0.1
		c1.2-6.2,2.7-12.3,4.4-18.2c7.8-0.1,15.7-0.3,23.5-0.6C-92.8,399.5-93.7,405.8-94.4,412.1z"/>
</g>
</svg>
