<?xml version="1.0" encoding="utf-8"?>
<!-- Generator: Adobe Illustrator 19.0.0, SVG Export Plug-In . SVG Version: 6.00 Build 0)  -->
<svg version="1.1" id="Camada_1" xmlns="http://www.w3.org/2000/svg" xmlns:xlink="http://www.w3.org/1999/xlink" x="0px" y="0px"
	 viewBox="0 0 243.8 238.4" style="enable-background:new 0 0 243.8 238.4;" xml:space="preserve">
<style type="text/css">
	.st0{fill:none;stroke:#E5402A;stroke-width:10;stroke-miterlimit:10;}
	.st1{fill:#E5402A;}
</style>
<g id="XMLID_1649_">
	<path id="XMLID_1650_" class="st0" d="M198.7,118.4c-3.2-0.8-7.4-2.5-6.2-2.6h0c17.8-1.3,38.2-18.9,36.8-38.8
		c-0.9-12.7-10.5-24.8-27.4-25.9c2.5-10,0.4-20.2-5.9-27.7c-7.6-9.1-20.1-13-33.4-10.5c-14,2.6-25.4,11.8-29.6,24
		c0,0.1-0.1,0.2-0.1,0.2c-0.8-2.4-2-4.7-3.5-6.8c-6.4-9.2-17.5-13.8-30.4-12.5c-12,1.2-27,7.6-33.5,22c-2.3,5.1-4.4,10.3-6.6,15.9
		c-1.9,0-3.8,0-5.6,0.1C39.9,55.9,25.8,64.7,19,77c-5.2,9.5-5.3,20.4-0.2,29.2c2.2,3.8,6.6,9.3,14.7,12.3
		c-7.5,4.9-13.1,11.8-16,18.2c-4.6,10.1-3.8,21.2,2,29.7c1.7,2.5,5.5,6.9,11.9,9.7c-0.6,5.9-1.1,11.7-1.4,17.5
		c-0.7,11,4.1,21.1,12.8,27.1c5.8,3.9,12.2,5.5,18.4,5.5c7.1,0,14-2,19.5-4.8c12.1-6.1,19.7-16.9,20.5-29c0.4-5.6,0.6-16.1,4.7-16.1
		c4.4,0,4.4,11.3,4.6,17.3c0.4,18,14.4,31.4,32.7,31.4c0.3,0,0.5,0,0.8,0c23.9-0.5,38.4-19.3,38-36.5c0-1.5-0.1-3-0.1-4.6
		c12.7,0.4,24.1-6.5,30.7-13.4c8.5-9,11.7-20.2,8.7-30.9C218.3,129.1,210.1,121.4,198.7,118.4z"/>
	<path id="XMLID_1651_" class="st1" d="M190.8,91.4c9.8-0.7,23.2-16.9,7.3-15.8c-9.6,0.7-19.2,1.2-28.8,1.7
		c2.6-10.6,5.5-21.1,9.1-31.3c4.6-13.2-19.1-11.4-22.8-0.9c-3.8,10.8-6.9,22-9.6,33.2c-15.8,0.6-31.7,0.9-47.6,1.2
		c3.4-10.1,7.2-20,11.5-29.6c5.3-11.8-18.4-9.1-22.5,0c-4.3,9.7-8.2,19.8-11.6,30c-7.4,0.1-14.8,0.2-22.1,0.3
		c-9.9,0.1-23.3,16-7.3,15.8c8.2-0.1,16.3-0.2,24.5-0.3c-3.8,13.2-7,26.6-9.6,40.2c-2.8,0.2-5.7,0.5-8.5,0.7
		c-10.8,1-22.5,18.9-6.7,17.5c4.1-0.4,8.2-0.7,12.3-1.1c-2.1,14.1-3.7,28.2-4.6,42.1c-0.8,11.6,22.8,5.9,23.5-4.5
		c0.8-13,2.2-26.1,4.2-39.2c17.9-0.9,36-1,53.9,0.4c-0.9,13.8-1.2,27.5-0.9,41c0.3,12.9,23.9,7.4,23.6-4
		c-0.2-11.4-0.1-22.9,0.5-34.4c7.5,1.2,14.9,2.6,22.1,4.5c9.8,2.5,26.4-13.2,12.2-16.9c-10.8-2.8-21.9-4.7-33-6.1
		c1.3-14.5,3.4-28.9,6.2-43.1C174.2,92.5,182.5,92,190.8,91.4z M136.7,134c-17.5-0.9-35.1-0.7-52.4,0.3c2.4-13.1,5.5-26.1,9.3-38.9
		c16.4-0.3,32.8-0.7,49.1-1.3C140,107.2,138.1,120.6,136.7,134z"/>
</g>
</svg>
