<?xml version="1.0" encoding="utf-8"?>
<!-- Generator: Adobe Illustrator 19.0.0, SVG Export Plug-In . SVG Version: 6.00 Build 0)  -->
<svg version="1.1" id="Camada_1" xmlns="http://www.w3.org/2000/svg" xmlns:xlink="http://www.w3.org/1999/xlink" x="0px" y="0px"
	 viewBox="0 0 841.9 595.3" style="enable-background:new 0 0 841.9 595.3;" xml:space="preserve">
<style type="text/css">
	.st0{fill:#E5402A;stroke:#E5402A;stroke-width:1.3869;stroke-linecap:round;stroke-linejoin:round;stroke-miterlimit:10;}
	.st1{fill:#FFFFFF;}
</style>
<g id="XMLID_1872_">
	<path id="XMLID_1896_" class="st0" d="M564.7,388c0.3-2.1,0.3-4.2,0.1-6.4c-0.2-1.7-0.5-3.3-1.1-4.8c0.8-1.1,1.3-2.1,1.6-2.9
		c0.1-0.3,0.3-0.6,0.4-0.9c1.6-4,2-7.9,1.3-11.9c-0.1-0.7-0.3-1.5-0.6-2.3c-0.1-1-0.4-2.1-0.7-3.2c0.5-0.3,1-0.6,1.4-0.9
		c5-3.6,8.9-8,11.5-13c2.7-5.3,4-11.1,3.8-17.2c-0.3-7.3-3.1-14-8.4-20.2c0.9-1.6,1.4-3,1.8-3.9c4.8-11.9,0.7-24.1-10.6-31.2
		c0,0-0.1-0.1-0.1-0.1c-4-2.4-8.1-3.9-12.3-4.4c-3.7-0.4-7.6-0.1-12.1,0.9c-6.2,1.3-12.2,3.9-17.9,7.7c-1.4,0.9-2.7,1.9-3.9,2.9
		c-0.8-1.5-1.5-2.5-2.4-3.5c-4.3-5-10.3-7.4-16.3-6.9c-1.6-2.8-3.7-4.7-5.6-6c-6.3-4.3-16.3-5.2-24.7,2.5c-0.2,0.2-0.3,0.3-0.5,0.5
		c-0.3,0.3-1,1-2.1,2c-0.4,0.4-0.8,0.8-1.2,1.2c-3,3.2-5.2,7.4-7.7,14.5c-0.1,0.2-0.1,0.4-0.2,0.6c-0.3,0.9-1,3-2.9,7.9
		c-5.4-2.9-10.6-2.2-13.2-1.6c-0.4-0.9-0.6-1.6-0.9-2.1c-1.6-3.8-4.1-8.4-8.7-11.6c-6.3-6.3-16.2-7.5-24.4-2.5
		c-0.3,0.2-0.6,0.4-0.9,0.6c-1.5-1.3-3.1-2.3-5-3.1l-2.7-1.1c-3-1.2-6.2-2.4-10.1-2.4c-4.3,0-7.8,1.4-10.6,2.9
		c-0.5,0.2-1,0.5-1.4,0.8c-0.8,0.5-1.6,1.1-2.3,1.7c-0.4-0.6-0.9-1.2-1.4-1.8c-5.4-6.3-14.1-9-23.2-7.4c-6.8,1.3-12.7,4.8-16.6,9.6
		c-4.7-5.2-11.8-7.7-19.8-6.9c-8.1,0.8-18.3,5.1-22.8,14.9c-1,2.1-1.9,4.3-2.9,6.6c-0.2,0-0.3,0-0.5,0c-9.2,0.1-18.9,5.9-23.5,14.1
		c-3.8,6.7-3.8,14.4-0.1,20.7c0.8,1.3,2.3,3.4,4.7,5.4c-2.5,2.5-4.4,5.3-5.7,8c-3.3,7.1-2.7,14.9,1.5,21c1,1.4,2.9,3.6,5.9,5.5
		c-0.2,2.4-0.4,4.8-0.6,7.2c-0.5,7.7,3,14.8,9.3,19.1c4.1,2.7,8.6,3.8,13,3.8c4.8,0,9.5-1.3,13.2-3.1c5.8-2.9,10.1-7.3,12.4-12.6
		c1.7,5.1,5.3,9.4,10.2,12.1c2.5,1.3,5.2,2.2,8,2.6c0.1,5.3,0.2,10.1,0.4,14.2l0.5,11.4c0.2,5.2,2.8,10.1,6.9,13.4l2.4,1.9
		c2.5,2,6,4.3,10.7,5.1c4.3,0.7,8.5-0.1,13-2.3c0.2-0.1,0.4-0.2,0.6-0.3l2.1-1.2c3.2-1.8,5.7-4.4,7.4-7.6c1.1,1.8,2.5,3.6,4.3,5.4
		l1.9,1.9c3.5,3.5,8.1,5.3,12.8,5.3c3.4,0,6.7-0.9,9.7-2.8c1.5-0.9,2.9-1.8,4.4-2.7c0.8,0.4,1.7,0.8,2.4,1c0.9,0.3,1.8,0.6,2.6,0.8
		c1.1,0.3,2.3,0.6,3.6,0.7c0.6,0.1,1.2,0.2,1.9,0.3c1.8,0.2,3.7,0.2,6,0.3c1.1,0,2.4,0.1,4,0.1c0.1,0,0.1,0,0.2,0
		c7.9-0.1,14.2-0.8,19.3-2c0.9-0.2,1.7-0.5,2.5-0.8c2.4,0.9,5,1.5,7.8,1.6c0.5,0,0.9,0,1.4,0c3.4,0,6.7-0.6,9.9-1.9
		c4.2-1.5,7.7-4.3,10.1-7.9c6.6,4.7,8.8,5.9,10.3,6.6c4.2,2.1,9,3.1,14.8,3.1c1.5,0,2.9-0.1,4.2-0.2c1.7-0.1,3.3-0.4,4.7-0.8
		c0.8,0.3,1.7,0.6,2.5,0.8c1.1,0.3,2.3,0.6,3.6,0.7c0.6,0.1,1.2,0.2,1.9,0.3c1.8,0.2,3.7,0.2,6,0.3c1.1,0,2.4,0.1,4,0.1
		c0.1,0,0.1,0,0.2,0c7.9-0.1,14.2-0.8,19.3-2c10-2.5,14.8-7.8,17-12.5c8.9-9.9,5-19.4,3.5-22.2C574.6,393.4,570.5,389.4,564.7,388z"
		/>
	<path id="XMLID_1893_" class="st1" d="M367.3,310c5.6-0.4,13.4-9.6,4.2-8.9c-5.6,0.4-11.1,0.7-16.7,1c1.5-6,3.2-12,5.3-17.8
		c2.6-7.4-11.1-6.5-13.2-0.5c-2.2,6.1-4,12.4-5.6,18.8c-9.2,0.3-18.4,0.5-27.5,0.7c2-5.7,4.1-11.3,6.6-16.8c3.1-6.7-10.7-5.2-13,0
		c-2.5,5.5-4.7,11.2-6.7,17c-4.3,0.1-8.5,0.1-12.8,0.2c-5.8,0.1-13.5,9-4.2,8.9c4.7-0.1,9.5-0.1,14.2-0.2
		c-2.2,7.5-4.1,15.1-5.6,22.8c-1.6,0.1-3.3,0.3-4.9,0.4c-6.2,0.6-13,10.7-3.9,9.9c2.4-0.2,4.7-0.4,7.1-0.6c-1.2,8-2.1,16-2.6,23.8
		c-0.4,6.6,13.2,3.3,13.6-2.5c0.5-7.4,1.3-14.8,2.4-22.2c10.4-0.5,20.8-0.6,31.2,0.2c-0.5,7.8-0.7,15.6-0.5,23.2
		c0.2,7.3,13.8,4.2,13.7-2.3c-0.1-6.4,0-12.9,0.3-19.5c4.3,0.7,8.6,1.5,12.8,2.5c5.7,1.4,15.3-7.5,7.1-9.6
		c-6.2-1.6-12.6-2.7-19.1-3.5c0.8-8.2,1.9-16.3,3.6-24.4C357.7,310.6,362.5,310.3,367.3,310z M336,334.1
		c-10.1-0.5-20.3-0.4-30.3,0.2c1.4-7.4,3.2-14.8,5.4-22c9.5-0.2,19-0.4,28.4-0.8C337.9,318.9,336.8,326.5,336,334.1z"/>
	<g id="XMLID_1873_">
		<path id="XMLID_1891_" class="st1" d="M386.7,284.3c1.3-0.6,2.1-1,2.6-1c0.4,0,1.5,0.4,3.2,1.1l2.9,1.2l-0.5,18.3
			c-0.4,11.8-0.5,21.6-0.5,29.4v11l-2.6,1.2c-1.3,0.6-2.1,0.9-2.5,0.8c-0.4-0.1-1.2-0.7-2.3-1.8l-2.2-2l-0.3-17.9
			c-0.2-10.6-0.2-20.1,0-28.5c0.2-5.2,0.4-8.4,0.6-9.4C385.2,285.6,385.8,284.9,386.7,284.3z"/>
		<path id="XMLID_1889_" class="st1" d="M482.1,275.7c1-0.9,1.7-1.2,2.2-0.9c0.5,0.3,0.7,1.3,0.8,2.9c0.1,1.6,0.3,3.5,0.6,5.5
			c0.5,3-1.7,10-6.7,21.2c-1.7,3.8-3.8,9.3-6.3,16.4c-2.1,6-4.3,11.7-6.6,17.1c-2.3,5.4-3.7,8.2-4.3,8.3c-0.4,0.2-1.7-1.4-3.9-4.8
			c-6.8-11.2-10.5-16.6-11.2-16.2c-0.5,0.3-2.9,4.3-7.2,11.9c-4.4,7.7-6.8,11.5-7.2,11.3c-0.5-0.2-1.8-3.9-3.8-11
			c-3.3-11.3-7.1-22.8-11.4-34.6c-2.5-6.9-3.3-10.6-2.4-11.1c0.4-0.3,0.8-1.1,1.1-2.6c0.2-1.1,0.8-2,1.9-2.7c1-0.6,1.8-0.6,2.3,0.1
			c0.2,0.3,1,0.9,2.2,1.8c0.7,0.4,1.6,1.8,2.6,4c1,2.3,2.6,6.6,4.7,13c3.5,10.6,5.5,16,6.2,16c0.6,0,2.4-2.7,5.5-8.2
			c3.2-5.5,5-8.3,5.5-8.4c0.2-0.1,0.6,0.2,1.2,0.9c0.6,0.7,1.2,1.5,1.9,2.5c6.5,10.5,10,15.7,10.5,15.7c0.5,0,1-0.7,1.5-2
			c0.6-1.4,1.3-3.2,2.1-5.3c6.7-16.7,10.5-26.8,11.6-30.2c1.5-4.3,2.8-7,3.8-8.1C480.3,277.4,481.3,276.5,482.1,275.7z"/>
		<path id="XMLID_1887_" class="st1" d="M496.9,288.8c2.3-2.7,3.7-4.2,4.2-4.6c0.5-0.4,1.1-0.2,1.6,0.5c0.6,0.7,2.8,6.6,6.4,17.6
			c3.7,11,6.3,19.2,8,24.6c1.3,3.9,2.8,8.4,4.3,13.6c1.5,5.1,2.2,7.8,2,7.9c-0.1,0.1-3.5-0.2-10.1-1c-6.6-0.8-11.4-1.4-14.5-1.9
			c-1.3-0.2-2.4-0.6-3.2-1.3c-0.9-0.6-2-1.7-3.2-3.2c-0.6-0.7-0.8-1.2-0.6-1.4c0.2-0.2,1.7-0.9,4.3-2.1c1.7-0.8,3-1.3,3.9-1.4
			c0.9-0.2,2.1-0.1,3.4,0.2c1.4,0.3,2.5,0.5,3.2,0.6c0.7,0.1,1.3,0.1,1.8,0.1c0.5-0.1,0.7-0.2,0.7-0.5c0-0.3,0-0.7,0-1.2
			c-0.2-0.9-1.4-4.4-3.5-10.5c-0.9-2.6-2.5-7.3-4.8-14c-0.4-1.4-0.9-2.7-1.4-3.8c-0.5-1.1-0.9-1.6-1.1-1.6c-0.6-0.2-1.3,0.5-2.3,2.1
			c-0.6,1.1-1.5,3.1-2.7,6c-1.1,2.9-2.2,5.8-3.1,8.9c-0.9,3.1-1.5,5.3-1.8,6.8c-0.6,4-1.3,6.8-1.9,8.2c-0.6,1.4-1.6,2.6-3.1,3.4
			l-2.7,1.6l-2.1-2c-1.4-1.3-2.1-2.7-2.1-4c0-3.2,1.1-8.4,3.3-15.7c2.2-7.3,4.4-12.9,6.5-16.9c1.4-2.7,2.8-5,4.2-6.9
			C492,294.6,494.1,292,496.9,288.8z"/>
		<path id="XMLID_1885_" class="st1" d="M544.3,283.3c2.5-0.6,4.6-0.8,6.2-0.6c1.6,0.2,3.3,0.8,5,1.9c3.8,2.4,5,5.5,3.5,9.1
			c-0.8,2.1-1.4,3.1-1.6,3.1c-0.3,0-1.7-0.6-4.2-1.8c-2.7-1.1-4.7-1.6-6.2-1.6c-1.5,0.1-3.4,0.7-5.8,2c-2.4,1.3-4.1,2.6-5.3,4
			c-0.4,0.4-0.7,0.8-0.9,1.2c-0.2,0.3-0.3,0.7-0.2,1c0.1,0.4,0.3,0.6,0.6,0.9c0.3,0.2,0.9,0.5,1.6,0.9c0.7,0.4,1.6,0.7,2.5,1
			c0.9,0.3,2.2,0.7,3.7,1.1c2.9,0.9,5.1,1.7,6.8,2.6c1.7,0.8,3.5,2,5.5,3.6c5.8,4.5,8.7,9,8.9,13.5c0.1,3-0.5,5.7-1.8,8.2
			c-1.3,2.5-3.3,4.7-6,6.7c-2.7,1.9-6,3.5-9.8,4.7c-6.5,2.2-11.5,2.5-15.1,1.2c-3.6-1.4-6.2-4.6-7.8-9.6c-0.6-2-0.7-3.6-0.3-5
			c0.4-1.4,1.3-2.7,2.7-4c1.3-1.2,2.3-1.7,2.9-1.4c0.6,0.2,0.9,1.2,1,2.9c0,1,0.6,1.9,1.6,2.8c1,0.9,1.5,1.6,1.6,2.2
			c0,0.6,0.7,1.4,1.9,2.5l1.9,1.6l5.6-1.9c4.8-1.6,8-3.6,9.8-6.1c1.8-2.5,1.7-4.9-0.3-7.1c-1.3-1.6-3.3-3.1-6.1-4.6
			c-2.8-1.5-5.7-2.6-8.8-3.5c-5.5-1.4-9.4-3.8-11.5-7.2c-2.2-3.4-2.3-7.2-0.4-11.4c1.2-2.7,3.6-5.3,7.4-7.8
			C536.5,285.7,540.4,284.1,544.3,283.3z"/>
		<path id="XMLID_1882_" class="st1" d="M395,356.9c1-0.4,2.5-0.6,4.4-0.4c1.9,0.1,3.2,0.5,3.9,1.2c0.5,0.5,0.9,5.6,1.2,15.3
			c0.3,9.7,0.3,19.1,0.1,28.1l-0.3,14c-1.8,1.1-3.5,2.2-5.3,3.3l-2-2c-1.1-1.1-1.8-2.1-2-3.1c-0.2-1-0.2-3.8-0.2-8.4
			c0.1-2.4,0-5.3-0.3-8.6L394,392l-11.6-0.5c-4.3-0.2-9.2-0.4-14.7-0.6l-3-0.1c-0.3,8.3-0.5,16.6-0.7,24.9l-2.1,1.2
			c-1,0.5-1.7,0.7-2.2,0.6c-0.5-0.1-1.2-0.5-2.3-1.4l-2.4-1.9l-0.5-11.4c-0.4-7.1-0.5-16.1-0.4-27.1l0.1-15.7l2.2-1.2
			c1.3-0.6,2.6-0.9,4.1-0.7c1.5,0.2,2.6,0.7,3.4,1.6c0.6,0.7,0.9,4.3,0.7,10.6c-0.2,6.4,0,9.7,0.5,9.9c0.4,0.4,5.4,0.6,15,0.7
			l14.3,0.4l-0.4-11.9c-0.2-5.9-0.3-9.4-0.2-10.4C393.8,357.9,394.2,357.2,395,356.9z"/>
		<path id="XMLID_1879_" class="st1" d="M420.2,357.3c2.5-0.8,6.2-1.1,11.2-1c3,0.1,5.2,0.3,6.6,0.6c1.3,0.3,2.7,0.8,4.1,1.5
			c2.2,1.2,3.3,2.3,3.3,3.2c0,0.5,0.1,1,0.3,1.6c0.2,0.6,0.4,1.1,0.4,1.4c0.1,0.4,0,0.9-0.3,1.6c-0.5,1.1-1.8,1.7-3.8,2
			c-2,0.2-4.1,0-6.2-0.7c-3.7-1.1-7.1-1.4-10.3-0.7c-3.2,0.7-5.4,2-6.5,4.1c-0.7,1.3-0.9,3.1-0.5,5.2l0.4,3.3h10.6
			c7.2,0.1,11.3,0.4,12.1,1c1.1,0.6,1.8,1.6,2,3.2c0.2,1.6-0.1,2.9-0.9,4.1c-0.6,0.9-1.4,1.5-2.3,1.6c-0.9,0.2-3.6,0.3-8.1,0.4
			c-6.2,0.1-10,0.5-11.4,1.1c-1.1,0.4-1.7,0.9-1.8,1.3c-0.1,0.4-0.1,1.5,0.2,3.2c0.2,1.5,0.5,2.7,0.7,3.8c0.3,1,0.7,1.9,1.1,2.7
			c0.5,0.8,1,1.4,1.6,2c0.6,0.5,1.4,1,2.3,1.4c4.3,2.3,10.8,2.3,19.5,0c3.6-0.9,5.9-1.4,7-1.4c1,0,1.8,0.3,2.3,1.1
			c0.4,0.9,1.2,1.1,2.2,0.7c2.1-0.5,2.1,0.3-0.2,2.4c-1.3,1.2-1.9,2.1-1.9,2.7c0,1.6-1.8,2.8-5.4,3.7c-3.6,0.9-8.6,1.4-15,1.5
			c-1.3,0-2.4,0-3.2-0.1c-0.9,0-1.7-0.1-2.5-0.1c-0.8,0-1.5,0-2-0.1c-0.6-0.1-1.1-0.1-1.6-0.2c-0.5-0.1-0.9-0.2-1.3-0.3
			c-0.4-0.1-0.8-0.2-1.2-0.4c-0.4-0.1-0.8-0.3-1.2-0.5c-5-2.4-8.3-6-9.9-10.7c-0.9-2.6-1.5-8.6-2-17.9c-0.5-9.3-0.5-15,0.1-17.2
			c0.6-2.1,2.1-4.3,4.5-6.6C415.5,359.6,417.9,358.1,420.2,357.3z"/>
		<path id="XMLID_1876_" class="st1" d="M466.1,358.6c2-0.6,4.9-0.9,8.6-0.6c2.5,0.1,4.3,0.4,5.4,0.7c1.1,0.3,2.4,1,3.8,2
			c6.7,4.5,9.8,9.9,9.3,16.2c-0.1,2.3-0.9,4.4-2.2,6.3c-1.3,1.9-3,3.4-4.9,4.4c-1.7,0.8-2.5,1.4-2.4,1.9c0.2,0.1,0.4,0.2,0.6,0.3
			c0.4,0,5,2.8,13.6,8.5c8.7,5.7,13.5,9,14.7,10c1.1,1,1.6,2,1.3,3c-0.3,0.9-0.2,1.6,0.3,1.9c1.6,0.9,1,1.5-1.6,1.7
			c-0.8,0.1-1.7,0.1-2.7,0.1c-2.8,0-5.1-0.4-6.7-1.2c-1.6-0.8-5.8-3.6-12.4-8.5c-3.7-2.6-7.8-5-12.3-7c-4.5-2.1-7.1-2.7-7.7-2
			c-0.3,0.3-0.4,3.2-0.4,8.8c0,4.3-0.1,6.8-0.3,7.6c-0.2,0.8-0.7,1.3-1.6,1.6c-1.3,0.6-2.7,0.8-4.1,0.7c-1.4-0.1-2.5-0.4-3.2-1
			c-0.6-0.4-0.9-1.4-1.1-2.9c-0.1-1.5-0.2-5.2-0.2-11c0.1-5.4,0.2-10.9,0.4-16.5c0.2-5.6,0.5-10.3,0.8-14c0.3-3.7,0.6-5.8,0.9-6.1
			c0.4-0.5,0.8-1.3,1.1-2.4C463.1,359.9,464.2,359.2,466.1,358.6z M477.2,368.8c-1.1-0.5-2-0.7-2.7-0.7c-0.7,0-1.6,0.4-2.6,1.1
			c-0.6,0.4-1.1,1-1.3,1.6s-0.3,1.7-0.3,3.2c0,2.4,0.2,4.2,0.6,5.4c0.4,0.9,0.7,1.4,1.1,1.5c0.4,0.1,1.5-0.1,3.5-0.6
			c5-1.3,7.4-2.9,7.4-5c0-0.6-0.3-1.4-0.9-2.2c-0.6-0.8-1.3-1.6-2.2-2.4C479,369.9,478.1,369.3,477.2,368.8z"/>
		<path id="XMLID_1874_" class="st1" d="M523.4,357.3c2.5-0.8,6.2-1.1,11.2-1c3,0.1,5.2,0.3,6.6,0.6c1.3,0.3,2.7,0.8,4.1,1.5
			c2.2,1.2,3.3,2.3,3.3,3.2c0,0.5,0.1,1,0.3,1.6c0.2,0.6,0.4,1.1,0.4,1.4c0.1,0.4,0,0.9-0.3,1.6c-0.5,1.1-1.8,1.7-3.8,2
			c-2,0.2-4.1,0-6.2-0.7c-3.7-1.1-7.1-1.4-10.3-0.7c-3.2,0.7-5.4,2-6.5,4.1c-0.7,1.3-0.9,3.1-0.5,5.2l0.4,3.3h10.6
			c7.2,0.1,11.3,0.4,12.1,1c1.1,0.6,1.8,1.6,2,3.2c0.2,1.6-0.1,2.9-0.9,4.1c-0.6,0.9-1.4,1.5-2.3,1.6c-0.9,0.2-3.6,0.3-8.1,0.4
			c-6.2,0.1-10,0.5-11.4,1.1c-1.1,0.4-1.7,0.9-1.8,1.3c-0.1,0.4-0.1,1.5,0.2,3.2c0.2,1.5,0.5,2.7,0.7,3.8c0.3,1,0.7,1.9,1.1,2.7
			c0.5,0.8,1,1.4,1.6,2c0.6,0.5,1.4,1,2.3,1.4c4.3,2.3,10.8,2.3,19.5,0c3.6-0.9,5.9-1.4,7-1.4c1,0,1.8,0.3,2.3,1.1
			c0.4,0.9,1.2,1.1,2.2,0.7c2.1-0.5,2.1,0.3-0.2,2.4c-1.3,1.2-1.9,2.1-1.9,2.7c0,1.6-1.8,2.8-5.4,3.7c-3.6,0.9-8.6,1.4-15,1.5
			c-1.3,0-2.4,0-3.2-0.1c-0.9,0-1.7-0.1-2.5-0.1c-0.8,0-1.5,0-2-0.1s-1.1-0.1-1.6-0.2c-0.5-0.1-0.9-0.2-1.3-0.3
			c-0.4-0.1-0.8-0.2-1.2-0.4c-0.4-0.1-0.8-0.3-1.2-0.5c-5-2.4-8.3-6-9.9-10.7c-0.9-2.6-1.5-8.6-2-17.9c-0.5-9.3-0.5-15,0.1-17.2
			c0.6-2.1,2.1-4.3,4.5-6.6C518.7,359.6,521.1,358.1,523.4,357.3z"/>
	</g>
</g>
</svg>
