<?xml version="1.0" encoding="utf-8"?>
<!-- Generator: Adobe Illustrator 19.0.0, SVG Export Plug-In . SVG Version: 6.00 Build 0)  -->
<svg version="1.1" id="Camada_1" xmlns="http://www.w3.org/2000/svg" xmlns:xlink="http://www.w3.org/1999/xlink" x="0px" y="0px"
	 viewBox="0 0 841.9 595.3" style="enable-background:new 0 0 841.9 595.3;" xml:space="preserve">
<style type="text/css">
	.st0{fill:#E5402A;stroke:#E5402A;stroke-width:9.1507;stroke-miterlimit:10;}
	.st1{fill:#FFFFFF;}
</style>
<g id="XMLID_401_">
	<path id="XMLID_1764_" class="st0" d="M495,313.2c-3.1-0.8-6.2-1.5-9.4-2.2c1.2-0.1,2.3-0.2,3.5-0.2h0c17-1.2,36.5-17.6,35.2-36.2
		c-0.8-11.8-10-23.2-26.2-24.2c2.4-9.3,0.4-18.8-5.6-25.9c-7.2-8.5-19.1-12.2-31.9-9.8c-13.4,2.5-24.2,11.1-28.3,22.4
		c0,0.1-0.1,0.2-0.1,0.2c-0.8-2.2-1.9-4.4-3.3-6.4c-6.1-8.6-16.7-12.9-29-11.7c-11.4,1.1-25.8,7.1-32,20.5
		c-2.2,4.7-4.2,9.6-6.3,14.8c-1.8,0-3.6,0-5.4,0.1c-12.9,0.1-26.4,8.3-32.9,19.8c-5,8.9-5.1,19.1-0.2,27.3c2.1,3.5,6.3,8.7,14,11.5
		c-7.1,4.5-12.5,11-15.3,17c-4.4,9.5-3.7,19.8,1.9,27.8c1.6,2.3,5.2,6.5,11.4,9.1c-0.6,5.5-1,11-1.4,16.3
		c-0.7,10.3,3.9,19.7,12.3,25.3c5.5,3.7,11.6,5.1,17.6,5.1c6.8,0,13.4-1.9,18.6-4.5c11.5-5.7,18.8-15.8,19.6-27.1
		c0.3-5.2,0.8-10.5,1.4-15.8c2.5,0,5,0,7.4,0c-0.1,5.7-0.1,11.3,0,16.9c0.4,16.8,13.7,29.3,31.2,29.3c0.3,0,0.5,0,0.8,0
		c22.8-0.5,36.6-18,36.3-34c0-1.4-0.1-2.8-0.1-4.3c12.1,0.4,23-6.1,29.3-12.5c8.1-8.4,11.1-18.9,8.3-28.9
		C513.8,323.1,506,315.9,495,313.2z"/>
	<path id="XMLID_1581_" class="st1" d="M487.6,288c9.3-0.7,22.1-15.8,7-14.7c-9.2,0.6-18.3,1.2-27.5,1.6c2.5-9.9,5.3-19.7,8.7-29.3
		c4.4-12.3-18.3-10.7-21.8-0.8c-3.6,10.1-6.6,20.5-9.2,31c-15.1,0.5-30.3,0.9-45.4,1.1c3.3-9.4,6.8-18.7,11-27.7
		c5-11-17.6-8.5-21.5,0c-4.1,9.1-7.8,18.5-11.1,28c-7,0.1-14.1,0.2-21.1,0.3c-9.5,0.1-22.2,14.9-7,14.7c7.8-0.1,15.6-0.2,23.4-0.3
		c-3.7,12.3-6.7,24.9-9.2,37.5c-2.7,0.2-5.4,0.5-8.1,0.7c-10.3,0.9-21.5,17.7-6.4,16.3c3.9-0.4,7.8-0.7,11.7-1
		c-2,13.1-3.5,26.3-4.4,39.3c-0.7,10.9,21.8,5.5,22.4-4.2c0.8-12.1,2.1-24.4,4-36.6c17.1-0.8,34.4-0.9,51.4,0.3
		c-0.8,12.9-1.1,25.7-0.8,38.3c0.3,12,22.8,6.9,22.6-3.8c-0.2-10.6-0.1-21.4,0.5-32.1c7.1,1.1,14.2,2.5,21.1,4.2
		c9.4,2.3,25.3-12.4,11.6-15.8c-10.3-2.6-20.9-4.4-31.5-5.7c1.2-13.5,3.2-27,5.9-40.2C471.7,289,479.7,288.5,487.6,288z
		 M435.9,327.8c-16.7-0.9-33.5-0.6-50.1,0.3c2.3-12.3,5.3-24.4,8.8-36.4c15.6-0.3,31.3-0.7,46.9-1.3
		C439.1,302.7,437.2,315.2,435.9,327.8z"/>
</g>
</svg>
