<?xml version="1.0" encoding="utf-8"?>
<!-- Generator: Adobe Illustrator 19.0.0, SVG Export Plug-In . SVG Version: 6.00 Build 0)  -->
<svg version="1.1" id="Camada_1" xmlns="http://www.w3.org/2000/svg" xmlns:xlink="http://www.w3.org/1999/xlink" x="0px" y="0px"
	 viewBox="0 0 243.8 238.4" style="enable-background:new 0 0 243.8 238.4;" xml:space="preserve">
<style type="text/css">
	.st0{fill-rule:evenodd;clip-rule:evenodd;fill:none;stroke:#E5402A;stroke-width:10;stroke-miterlimit:10;}
	.st1{fill-rule:evenodd;clip-rule:evenodd;fill:#E5402A;}
</style>
<g id="XMLID_1660_">
	<g id="XMLID_1661_">
		<path id="XMLID_1662_" class="st0" d="M121.6,212.1c-21.5,0-42.9-0.3-64.4,0.1c-19.2,0.4-28.5-8.1-28.4-27.7
			c0.3-43.8,0.3-87.5,0-131.3c-0.1-19.8,9.9-27.3,28.9-27.1c42.9,0.5,85.8,0.4,128.7,0c19.2-0.2,28.5,8.1,28.4,27.7
			c-0.3,43.8-0.3,87.5,0,131.3c0.1,19.9-10,27.6-28.9,27.1C164.6,211.7,143.1,212.1,121.6,212.1z"/>
		<path id="XMLID_1663_" class="st1" d="M121.1,181.2c-15.4,0-30.9,0.2-46.3-0.1c-4.7-0.1-11,2.3-13.6-3.5l39-69.6l30.3,19.2
			l53.9-54.4c0,0,1,98-1.3,103.9c-2.9,7.4-10.2,4.2-15.6,4.3C152,181.4,136.5,181.2,121.1,181.2z"/>
	</g>
	<path id="XMLID_1664_" class="st1" d="M100.9,72.8c0,6.6-5.4,12-12,12c-6.6,0-12-5.4-12-12c0-6.6,5.4-12,12-12
		C95.6,60.8,100.9,66.2,100.9,72.8z"/>
</g>
</svg>
